<svg width="214" height="32" viewBox="0 0 375 57">
	<g transform="matrix(0.59,0,0,0.59,-3.3,-1)" fill="#120a8f">
		<g>
			<path d="M27.15,86.13c-0.04,0-0.09,0-0.13,0c-5.19-0.34-9.14-2.28-11.76-5.77c-4.34-5.79-3.54-14.06-3.07-17.03c-4.47-4.66-6.66-9.75-6.5-15.16c0.23-8.14,5.75-14.47,7.96-16.69c-1.94-9.17,1.6-13.41,5-15.36c0.16-0.09,4.32-2.53,8.06-3.32c1.08-0.23,2.14,0.47,2.37,1.55c0.23,1.08-0.47,2.14-1.55,2.37c-3.08,0.65-6.83,2.84-6.87,2.86c-3.42,1.96-4.38,6.02-2.86,12.07    c0.18,0.73-0.06,1.5-0.63,1.99c-0.07,0.06-7.25,6.45-7.48,14.66c-0.12,4.53,1.91,8.88,6.05,12.92c0.5,0.48,0.71,1.19,0.55,1.86    c-0.02,0.09-1.99,9.34,2.17,14.88c1.89,2.51,4.85,3.91,8.81,4.17c1.1,0.07,1.94,1.02,1.87,2.13    C29.08,85.32,28.2,86.13,27.15,86.13z">
			</path>
		</g>
		<g>
			<g>
				<path d="M39.6,98.08c-1.14,0-2.29-0.14-3.42-0.42c-3.64-0.91-6.71-3.18-8.64-6.4c-3.19-5.3-2.5-12.18,1.68-16.73l6.85-7.45c0.75-0.81,2.01-0.87,2.83-0.12c0.81,0.75,0.87,2.01,0.12,2.83l-6.85,7.45c-2.99,3.25-3.48,8.18-1.2,11.96c1.38,2.3,3.58,3.93,6.18,4.58c2.6,0.65,5.31,0.25,7.61-1.14c3.13-1.88,4.85-4.72,4.85-8.02V16.5c0-5.65-4.59-10.25-10.24-10.25c-5.65,0-10.25,4.6-10.25,10.25s4.6,10.25,10.25,10.25c1.1,0,2,0.9,2,2s-0.9,2-2,2c-7.86,0-14.25-6.39-14.25-14.25c0-7.85,6.39-14.25,14.25-14.25c7.85,0,14.24,6.39,14.24,14.25v68.12c0,4.69-2.47,8.86-6.79,11.45C44.6,97.4,42.12,98.08,39.6,98.08z">
				</path>
			</g>
			<g>
				<path d="M44.91,19.83c-1.52,0-3.05-0.49-4.33-1.5c-0.43-0.34-0.51-0.97-0.17-1.4c0.34-0.43,0.97-0.51,1.4-0.17c2.17,1.71,5.33,1.33,7.04-0.84c0.23-0.3,0.43-0.61,0.58-0.93c0.7-1.46,0.48-3.01-0.66-4.61c-0.32-0.45-0.22-1.07,0.23-1.39c0.45-0.32,1.07-0.22,1.39,0.23c1.55,2.18,1.85,4.54,0.84,6.64c-0.21,0.45-0.49,0.88-0.81,1.3C49.05,18.92,46.99,19.83,44.91,19.83z">
				</path>
			</g>
			<g>
				<path d="M31.43,41.25c-0.08,0-0.16-0.01-0.24-0.03c-3.97-0.98-6.4-4.99-5.43-8.96c0.97-3.96,4.99-6.4,8.96-5.43c0.54,0.13,0.86,0.67,0.73,1.21c-0.13,0.54-0.67,0.87-1.21,0.73c-2.89-0.71-5.83,1.06-6.54,3.96c-0.71,2.89,1.07,5.83,3.96,6.54c0.54,0.13,0.86,0.67,0.73,1.21C32.29,40.95,31.88,41.25,31.43,41.25z">
				</path>
			</g>
			<g>
				<path d="M24.73,60.89c-0.55,0-1-0.45-1-1s0.45-1,1-1c5.53,0,13.63-10.32,16.28-14.29c0.03-0.04,0.05-0.07,0.08-0.11c2.67-3.01,7.75-3.23,10.88-0.47c0.41,0.37,0.45,1,0.09,1.41c-0.37,0.41-1,0.45-1.41,0.09c-2.27-2.01-6.07-1.88-8.01,0.25C41.83,46.96,32.29,60.89,24.73,60.89z">
				</path>
			</g>
			<g>
				<path d="M32.98,74.03c-0.11,0-0.21-0.02-0.32-0.05l-6.81-2.28c-0.52-0.17-0.81-0.74-0.63-1.27c0.17-0.52,0.74-0.8,1.27-0.63l6.81,2.28c0.52,0.17,0.81,0.74,0.63,1.27C33.79,73.77,33.4,74.03,32.98,74.03z">
				</path>
			</g>
			<g>
				<path d="M32.76,56.12c-0.27,0-0.54-0.11-0.73-0.32c-4.34-4.7-10.56-7.66-10.62-7.69c-0.5-0.24-0.71-0.83-0.48-1.33c0.24-0.5,0.83-0.71,1.33-0.48c0.27,0.13,6.63,3.16,11.24,8.14c0.38,0.41,0.35,1.04-0.06,1.41C33.25,56.03,33.01,56.12,32.76,56.12z">
				</path>
			</g>
		</g>
		<g>
			<g>
				<path d="M85.91,79.77c-4.64,0-8.41-3.77-8.41-8.41c0-4.64,3.77-8.41,8.41-8.41c4.63,0,8.41,3.77,8.41,8.41C94.32,76,90.55,79.77,85.91,79.77z M85.91,66.96c-2.43,0-4.41,1.98-4.41,4.41c0,2.43,1.98,4.41,4.41,4.41c2.43,0,4.41-1.98,4.41-4.41C90.32,68.94,88.34,66.96,85.91,66.96z">
				</path>
			</g>
			<g>
				<path d="M79.42,72.37h-7.15c-0.27,0-0.52-0.11-0.71-0.29L60.3,60.81h-8.24c-0.55,0-1-0.45-1-1s0.45-1,1-1h8.65c0.27,0,0.52,0.11,0.71,0.29l11.26,11.26h6.74c0.55,0,1,0.45,1,1S79.97,72.37,79.42,72.37z">
				</path>
			</g>
			<g>
				<path d="M71.04,86.23c-0.25,0-0.51-0.1-0.7-0.29L60.3,76.02h-8.24c-0.55,0-1-0.45-1-1s0.45-1,1-1h8.65c0.26,0,0.52,0.1,0.7,0.29l10.32,10.21c0.39,0.39,0.4,1.02,0.01,1.41C71.55,86.13,71.3,86.23,71.04,86.23z">
				</path>
			</g>
			<g>
				<path d="M75.49,98.21c-4.64,0-8.41-3.77-8.41-8.41s3.77-8.41,8.41-8.41c4.63,0,8.41,3.77,8.41,8.41S80.13,98.21,75.49,98.21z M75.49,85.39c-2.43,0-4.41,1.98-4.41,4.41s1.98,4.41,4.41,4.41c2.43,0,4.41-1.98,4.41-4.41S77.92,85.39,75.49,85.39z">
				</path>
			</g>
		</g>
		<g>
			<g>
				<path d="M85.91,37.04c-4.64,0-8.41-3.77-8.41-8.41s3.77-8.41,8.41-8.41c4.63,0,8.41,3.77,8.41,8.41S90.55,37.04,85.91,37.04z M85.91,24.23c-2.43,0-4.41,1.98-4.41,4.41s1.98,4.41,4.41,4.41c2.43,0,4.41-1.98,4.41-4.41S88.34,24.23,85.91,24.23z">
				</path>
			</g>
			<g>
				<path d="M60.71,41.19h-8.65c-0.55,0-1-0.45-1-1s0.45-1,1-1h8.24l11.26-11.26c0.19-0.19,0.44-0.29,0.71-0.29h7.24c0.55,0,1,0.45,1,1s-0.45,1-1,1h-6.82L61.42,40.89C61.23,41.08,60.98,41.19,60.71,41.19z">
				</path>
			</g>
			<g>
				<path d="M60.71,25.97h-8.65c-0.55,0-1-0.45-1-1s0.45-1,1-1h8.24l9.92-9.92c0.39-0.39,1.02-0.39,1.41,0s0.39,1.02,0,1.41L61.42,25.68C61.23,25.87,60.98,25.97,60.71,25.97z">
				</path>
			</g>
			<g>
				<path d="M75.49,18.61c-4.64,0-8.41-3.77-8.41-8.41c0-4.64,3.77-8.41,8.41-8.41c4.63,0,8.41,3.77,8.41,8.41C83.9,14.84,80.13,18.61,75.49,18.61z M75.49,5.79c-2.43,0-4.41,1.98-4.41,4.41c0,2.43,1.98,4.41,4.41,4.41c2.43,0,4.41-1.98,4.41-4.41C79.9,7.77,77.92,5.79,75.49,5.79z">
				</path>
			</g>
		</g>
		<g>
			<g>
				<path d="M66.33,51H51.9c-0.55,0-1-0.45-1-1s0.45-1,1-1h14.42c0.55,0,1,0.45,1,1S66.88,51,66.33,51z">
				</path>
			</g>
			<g>
				<path d="M74.15,58.41c-4.64,0-8.41-3.77-8.41-8.41s3.77-8.41,8.41-8.41s8.41,3.77,8.41,8.41S78.79,58.41,74.15,58.41z M74.15,45.59c-2.43,0-4.41,1.98-4.41,4.41s1.98,4.41,4.41,4.41s4.41-1.98,4.41-4.41S76.58,45.59,74.15,45.59z">
				</path>
			</g>
		</g>
		<g>
			<path d="M51.59,85.7c-0.01,0-0.03,0-0.04,0c-0.55-0.02-0.98-0.49-0.96-1.04c0.06-1.42-0.65-2.71-1.86-3.36    c-1.76-0.95-3.97-0.29-4.92,1.48c-0.26,0.49-0.87,0.67-1.36,0.4c-0.49-0.26-0.67-0.87-0.4-1.36c1.48-2.73,4.9-3.76,7.63-2.29    c1.88,1.01,3,3.01,2.91,5.2C52.57,85.28,52.12,85.7,51.59,85.7z">
			</path>
		</g>
	</g>
	<g transform="matrix(2,0,0,2,76,4.4)" fill="#120a8f">
		<path d="M15.72 19.2 l-1 1.16 l-1.9 -1.72 c-1.3 1 -2.8 1.52 -4.52 1.52 c-1.02 0 -2 -0.2 -2.9 -0.58 s-1.68 -0.9 -2.32 -1.58 c-0.64 -0.64 -1.14 -1.42 -1.52 -2.34 c-0.36 -0.92 -0.56 -1.88 -0.56 -2.9 c0 -1.38 0.32 -2.66 0.96 -3.78 c0.62 -1.14 1.5 -2.06 2.64 -2.72 c1.1 -0.66 2.36 -0.98 3.74 -0.98 c1.04 0 2 0.18 2.92 0.56 c0.9 0.4 1.66 0.92 2.32 1.56 c0.64 0.68 1.14 1.46 1.52 2.36 c0.38 0.92 0.56 1.88 0.56 2.92 c0 1.88 -0.64 3.6 -1.78 4.94 z M2.6 12.68 c0 1.08 0.24 2.08 0.72 3 s1.16 1.66 2.04 2.22 c0.88 0.54 1.88 0.82 2.98 0.82 c1.26 0 2.4 -0.36 3.36 -1.08 l-2.78 -2.44 l1.02 -1.12 l2.82 2.56 c0.88 -1.1 1.32 -2.4 1.32 -3.88 c0 -1.64 -0.6 -3.16 -1.6 -4.26 s-2.5 -1.8 -4.18 -1.8 c-1.08 0 -2.06 0.28 -2.94 0.8 c-0.88 0.56 -1.56 1.28 -2.04 2.18 c-0.48 0.92 -0.72 1.92 -0.72 3 z M18.22 10.06 l1.44 0 l0 5.78 c0 0.92 0.24 1.66 0.72 2.2 c0.46 0.56 1.14 0.82 2.04 0.82 c0.86 0 1.56 -0.3 2.12 -0.9 s0.84 -1.34 0.84 -2.24 l0 -5.66 l1.44 0 l0 9.94 l-1.42 0 l0 -1.82 c-0.8 1.34 -1.92 2.02 -3.42 2.02 c-1.18 0 -2.1 -0.38 -2.78 -1.1 c-0.66 -0.74 -0.98 -1.7 -0.98 -2.9 l0 -6.14 z M33.34 14.26 l2.76 0 l0 -0.66 c0 -1.6 -0.88 -2.42 -2.54 -2.42 c-0.8 0 -1.48 0.26 -1.88 0.66 s-0.64 0.86 -0.72 1.36 l-1.4 -0.3 c0.02 -0.5 0.5 -1.48 1.4 -2.2 c0.6 -0.46 1.56 -0.82 2.64 -0.82 c1.82 0 3.02 0.68 3.62 2.06 c0.2 0.46 0.3 1 0.3 1.64 l0 2.8 c0 1.66 0.06 2.88 0.16 3.62 l-1.44 0 c-0.08 -0.44 -0.14 -1.02 -0.14 -1.74 l0 0 c-0.84 1.28 -1.94 1.92 -3.36 1.92 c-0.98 0 -1.8 -0.28 -2.4 -0.84 c-0.62 -0.54 -0.94 -1.24 -0.94 -2.1 l0 -0.1 c0 -2.16 2.16 -2.88 3.94 -2.88 z M36.1 15.8 l0 -0.34 l-2.78 0 c-0.58 0 -1.12 0.1 -1.62 0.34 c-0.5 0.22 -0.84 0.7 -0.84 1.32 c0 0.56 0.2 0.98 0.62 1.3 c0.4 0.32 0.9 0.48 1.52 0.48 c0.88 0 1.62 -0.3 2.22 -0.88 c0.58 -0.56 0.88 -1.32 0.88 -2.22 z M49.3 20 l-1.46 0 l0 -5.78 c0 -0.92 -0.22 -1.64 -0.7 -2.2 c-0.46 -0.54 -1.14 -0.82 -2.04 -0.82 c-0.86 0 -1.58 0.3 -2.14 0.9 c-0.54 0.6 -0.82 1.34 -0.82 2.24 l0 5.66 l-1.46 0 l0 -9.94 l1.42 0 l0 1.82 c0.8 -1.34 1.94 -2 3.44 -2 c1.18 0 2.1 0.36 2.78 1.08 c0.64 0.74 0.98 1.7 0.98 2.9 l0 6.14 z M55.94 20.08 c-2.16 0 -2.82 -1.2 -2.82 -2.66 l0 -6.08 l-1.84 0 l0 -1.28 l1.84 0 l0 -2.86 l1.44 0 l0 2.86 l2.52 0 l0 1.28 l-2.52 0 l0 6.06 c0 0.92 0.54 1.4 1.62 1.4 c0.34 0 0.64 -0.04 0.9 -0.08 l0 1.2 c-0.32 0.1 -0.7 0.16 -1.14 0.16 z M59.42 10.06 l1.44 0 l0 5.78 c0 0.92 0.24 1.66 0.72 2.2 c0.46 0.56 1.14 0.82 2.04 0.82 c0.86 0 1.56 -0.3 2.12 -0.9 s0.84 -1.34 0.84 -2.24 l0 -5.66 l1.44 0 l0 9.94 l-1.42 0 l0 -1.82 c-0.8 1.34 -1.92 2.02 -3.42 2.02 c-1.18 0 -2.1 -0.38 -2.78 -1.1 c-0.66 -0.74 -0.98 -1.7 -0.98 -2.9 l0 -6.14 z M79.5 20 l-1.42 0 l0 -5.84 c0 -0.86 -0.22 -1.58 -0.64 -2.14 c-0.44 -0.54 -1.08 -0.82 -1.92 -0.82 s-1.52 0.3 -2.02 0.92 s-0.74 1.36 -0.74 2.22 l0 5.66 l-1.46 0 l0 -9.94 l1.42 0 l0 1.72 c0.86 -1.28 1.8 -1.9 3.22 -1.9 c1.44 0 2.58 0.7 3.18 2 c0.84 -1.34 2.02 -2 3.5 -2 c1.16 0 2.06 0.36 2.72 1.1 c0.62 0.72 0.94 1.68 0.94 2.88 l0 6.14 l-1.44 0 l0 -5.78 c0 -0.9 -0.2 -1.62 -0.64 -2.18 c-0.42 -0.54 -1.06 -0.84 -1.94 -0.84 c-0.84 0 -1.5 0.3 -2 0.9 c-0.5 0.58 -0.76 1.32 -0.76 2.18 l0 5.72 z M93.86 20.14 c-1.38 0 -2.7 -0.52 -3.56 -1.28 c-0.9 -0.78 -1.48 -1.82 -1.6 -2.84 l1.44 -0.4 c0.16 0.86 0.6 1.58 1.32 2.18 c0.7 0.6 1.5 0.9 2.4 0.9 c0.84 0 1.62 -0.2 2.24 -0.64 c0.62 -0.42 1.02 -1.14 1.02 -2.02 c0 -1.02 -0.54 -1.68 -1.22 -2.08 c-0.48 -0.28 -0.9 -0.4 -1.38 -0.5 l-1.92 -0.38 c-0.4 -0.08 -0.82 -0.22 -1.28 -0.42 c-0.46 -0.22 -0.86 -0.48 -1.2 -0.82 c-0.68 -0.66 -1.02 -1.5 -1.02 -2.52 c0 -0.8 0.22 -1.52 0.66 -2.14 c0.44 -0.64 1 -1.1 1.7 -1.44 c0.7 -0.32 1.44 -0.48 2.26 -0.48 c3.14 0 4.52 1.94 4.82 3.5 l-1.4 0.44 c-0.24 -1.04 -1.18 -2.52 -3.44 -2.52 c-1.56 -0.04 -3.08 1.06 -3.06 2.58 c0 1.12 0.7 2.02 2.12 2.3 l1.84 0.36 c1.24 0.24 2.2 0.66 2.84 1.28 c0.44 0.4 0.76 0.86 0.96 1.34 c0.2 0.5 0.3 0.94 0.3 1.34 c0.02 2.56 -2.14 4.32 -4.84 4.26 z M102.14 14.98 c0 1.4 0.58 2.62 1.68 3.34 c0.56 0.38 1.2 0.56 1.92 0.56 c0.84 0 1.58 -0.28 2.04 -0.62 c0.22 -0.16 0.42 -0.36 0.62 -0.6 c0.36 -0.48 0.52 -0.8 0.66 -1.16 l1.34 0.44 c-0.22 0.78 -0.76 1.54 -1.52 2.16 c-0.76 0.64 -1.92 1.08 -3.16 1.08 c-2.84 0.04 -5.1 -2.18 -5.06 -5.12 c0 -0.98 0.24 -1.86 0.7 -2.66 s1.08 -1.42 1.86 -1.86 s1.62 -0.66 2.56 -0.66 c1.12 0 2.12 0.32 2.96 0.92 c0.86 0.64 1.4 1.38 1.6 2.26 l-1.32 0.44 c-0.22 -0.8 -1.24 -2.32 -3.28 -2.32 c-1.04 0 -1.9 0.36 -2.58 1.1 s-1.02 1.64 -1.02 2.7 z M121.44 20 l-1.46 0 l0 -5.78 c0 -0.92 -0.22 -1.64 -0.7 -2.2 c-0.46 -0.54 -1.14 -0.82 -2.04 -0.82 c-0.86 0 -1.58 0.3 -2.14 0.9 c-0.54 0.6 -0.82 1.34 -0.82 2.24 l0 5.66 l-1.46 0 l0 -15.16 l1.46 0 l0 7 c0.78 -1.32 1.92 -1.96 3.4 -1.96 c1.18 0 2.1 0.36 2.78 1.08 c0.64 0.74 0.98 1.7 0.98 2.9 l0 6.14 z M128.98 20.18 c-0.92 0 -1.8 -0.24 -2.58 -0.68 c-0.78 -0.46 -1.4 -1.08 -1.84 -1.86 c-0.46 -0.78 -0.68 -1.64 -0.68 -2.58 c0 -1.46 0.48 -2.7 1.48 -3.68 c0.98 -1 2.2 -1.5 3.66 -1.5 c2.82 -0.06 5.18 2.32 5.14 5.12 c0.04 2.88 -2.32 5.24 -5.18 5.18 z M129.01999999999998 18.88 c1.04 0 1.92 -0.38 2.62 -1.12 c0.68 -0.74 1.02 -1.64 1.02 -2.7 s-0.34 -1.98 -1.04 -2.76 c-0.7 -0.76 -1.56 -1.14 -2.64 -1.14 c-1.04 0 -1.92 0.38 -2.6 1.12 s-1.02 1.64 -1.02 2.72 c-0.04 2.06 1.54 3.92 3.66 3.88 z M141.08 20.18 c-0.92 0 -1.8 -0.24 -2.58 -0.68 c-0.78 -0.46 -1.4 -1.08 -1.84 -1.86 c-0.46 -0.78 -0.68 -1.64 -0.68 -2.58 c0 -1.46 0.48 -2.7 1.48 -3.68 c0.98 -1 2.2 -1.5 3.66 -1.5 c2.82 -0.06 5.18 2.32 5.14 5.12 c0.04 2.88 -2.32 5.24 -5.18 5.18 z M141.12 18.88 c1.04 0 1.92 -0.38 2.62 -1.12 c0.68 -0.74 1.02 -1.64 1.02 -2.7 s-0.34 -1.98 -1.04 -2.76 c-0.7 -0.76 -1.56 -1.14 -2.64 -1.14 c-1.04 0 -1.92 0.38 -2.6 1.12 s-1.02 1.64 -1.02 2.72 c-0.04 2.06 1.54 3.92 3.66 3.88 z M148.79999999999998 20 l0 -15.18 l1.46 0 l0 15.18 l-1.46 0 z">
		</path>
	</g>
</svg>
